<svg width="202" height="35" viewBox="0 0 202 35" fill="none" xmlns="http://www.w3.org/2000/svg">
<path d="M34.0078 32.7852C32.6328 33.1003 31.2578 33.3867 29.8828 33.6445C28.5365 33.931 27.1615 34.1888 25.7578 34.418C24.0391 31.8112 22.3346 29.2474 20.6445 26.7266C18.9831 24.1771 17.25 21.6419 15.4453 19.1211L10.8477 23.5898L10.418 33.1289C9.75911 33.1003 9.10026 33.0716 8.44141 33.043C7.8112 33.043 7.18099 33.043 6.55078 33.043C5.94922 33.043 5.36198 33.0573 4.78906 33.0859C4.21615 33.1146 3.64323 33.1719 3.07031 33.2578C2.72656 30.6224 2.39714 28.0013 2.08203 25.3945C1.79557 22.7591 1.53776 20.1094 1.30859 17.4453C1.07943 14.7812 0.893229 12.1315 0.75 9.49609C0.635417 6.83203 0.520833 4.16797 0.40625 1.50391C2.55469 1.5612 4.67448 1.60417 6.76562 1.63281C8.88542 1.63281 11.0195 1.66146 13.168 1.71875L12.9102 11.6875C14.457 10.0833 15.918 8.45052 17.293 6.78906C18.668 5.1276 20.0859 3.4375 21.5469 1.71875C22.9219 1.63281 24.3112 1.54688 25.7148 1.46094C27.1185 1.34635 28.5078 1.23177 29.8828 1.11719L29.7109 4.29688L20.6016 13.793C22.7786 17.0299 24.9701 20.2096 27.1758 23.332C29.4102 26.4544 31.6875 29.6055 34.0078 32.7852ZM41.7422 4.25391C41.7422 4.82682 41.6133 5.37109 41.3555 5.88672C41.1263 6.3737 40.7969 6.80339 40.3672 7.17578C39.9661 7.54818 39.5078 7.84896 38.9922 8.07812C38.4766 8.27865 37.9609 8.37891 37.4453 8.37891C36.8724 8.37891 36.3281 8.25 35.8125 7.99219C35.3255 7.73438 34.8958 7.40495 34.5234 7.00391C34.151 6.60286 33.8646 6.14453 33.6641 5.62891C33.4635 5.08464 33.3633 4.54036 33.3633 3.99609C33.3633 3.45182 33.4635 2.95052 33.6641 2.49219C33.8932 2.00521 34.1797 1.58984 34.5234 1.24609C34.8958 0.902344 35.3112 0.630208 35.7695 0.429688C36.2565 0.229167 36.7721 0.128906 37.3164 0.128906C37.8607 0.128906 38.3906 0.24349 38.9062 0.472656C39.4505 0.673177 39.9232 0.973958 40.3242 1.375C40.7539 1.7474 41.0977 2.19141 41.3555 2.70703C41.6133 3.19401 41.7422 3.70964 41.7422 4.25391ZM43.5039 11.5586C43.3607 13.0768 43.2461 14.5807 43.1602 16.0703C43.0742 17.5599 42.9883 19.0495 42.9023 20.5391C42.7878 22.2865 42.5872 24.0195 42.3008 25.7383C42.043 27.457 41.7422 29.1758 41.3984 30.8945L34.8242 31.582C34.8242 30.6654 34.8242 29.763 34.8242 28.875C34.8529 27.987 34.8672 27.0846 34.8672 26.168C34.8672 23.819 34.8242 21.4701 34.7383 19.1211C34.6523 16.7721 34.5664 14.4232 34.4805 12.0742C35.9987 12.0169 37.4883 11.931 38.9492 11.8164C40.4388 11.7018 41.957 11.6159 43.5039 11.5586ZM73.4531 20.2383C73.4531 21.0117 73.4531 21.7995 73.4531 22.6016C73.4531 23.375 73.4245 24.1484 73.3672 24.9219L63.7852 25.5234C63.8997 24.0339 63.9857 22.5586 64.043 21.0977C64.1289 19.6367 64.1719 18.1471 64.1719 16.6289C64.1719 16.4857 64.1719 16.2422 64.1719 15.8984C64.1719 15.5547 64.1576 15.1966 64.1289 14.8242C64.1003 14.4232 64.0716 14.0508 64.043 13.707C64.0143 13.3633 63.9857 13.1198 63.957 12.9766C63.8138 12.5755 63.6562 12.2318 63.4844 11.9453C63.3411 11.6589 63.1549 11.4297 62.9258 11.2578C62.7253 11.0859 62.4674 10.9714 62.1523 10.9141C61.8372 10.8281 61.4505 10.7852 60.9922 10.7852C60.6484 10.7852 60.2044 10.8138 59.6602 10.8711C59.1445 10.9284 58.6146 11.0143 58.0703 11.1289C57.526 11.2435 57.0104 11.3867 56.5234 11.5586C56.0365 11.7305 55.6927 11.931 55.4922 12.1602L55.4062 24.8359C55.349 24.7214 55.1771 24.6641 54.8906 24.6641C54.6328 24.6641 54.4466 24.6641 54.332 24.6641C53.4727 24.6641 52.5846 24.707 51.668 24.793C50.7513 24.8503 49.8633 24.9362 49.0039 25.0508C48.6315 21.6706 48.3021 18.3047 48.0156 14.9531C47.7292 11.6016 47.3997 8.23568 47.0273 4.85547C47.6003 4.82682 48.1732 4.8125 48.7461 4.8125C49.319 4.78385 49.8919 4.76953 50.4648 4.76953C51.2096 4.76953 51.9544 4.79818 52.6992 4.85547C53.4727 4.88411 54.2318 4.91276 54.9766 4.94141L55.2773 8.25C56.0794 6.93229 57.168 5.82943 58.543 4.94141C59.918 4.05339 61.3932 3.60938 62.9688 3.60938C63.7708 3.60938 64.6016 3.65234 65.4609 3.73828C66.3203 3.82422 67.1367 3.99609 67.9102 4.25391C68.7122 4.51172 69.457 4.86979 70.1445 5.32812C70.8607 5.78646 71.4622 6.3737 71.9492 7.08984C72.1784 7.43359 72.3646 7.94922 72.5078 8.63672C72.6797 9.29557 72.8229 10.0547 72.9375 10.9141C73.0521 11.7448 73.138 12.6328 73.1953 13.5781C73.2812 14.5234 73.3385 15.4258 73.3672 16.2852C73.3958 17.1445 73.4102 17.9323 73.4102 18.6484C73.4388 19.3359 73.4531 19.8659 73.4531 20.2383ZM107.527 9.10938C107.527 10.3125 107.527 11.5013 107.527 12.6758C107.527 13.8503 107.499 15.0391 107.441 16.2422C107.384 18.8776 107.27 21.4987 107.098 24.1055C106.926 26.6836 106.74 29.276 106.539 31.8828C103.932 32.0547 101.354 32.1979 98.8047 32.3125C96.2552 32.4271 93.6771 32.4844 91.0703 32.4844C90.7266 32.4844 90.1823 32.4844 89.4375 32.4844C88.6927 32.4557 87.8906 32.4271 87.0312 32.3984C86.2005 32.3698 85.4128 32.3268 84.668 32.2695C83.9232 32.1836 83.3789 32.069 83.0352 31.9258C80.8294 31.1237 79.1823 30.0495 78.0938 28.7031C77.0339 27.3281 76.5039 25.4375 76.5039 23.0312V22.3438C76.5612 21.2839 76.6471 20.3385 76.7617 19.5078C76.8763 18.6771 77.0768 17.918 77.3633 17.2305C77.6784 16.543 78.0938 15.9128 78.6094 15.3398C79.1536 14.7383 79.8841 14.1367 80.8008 13.5352C81.431 13.1055 82.1758 12.7474 83.0352 12.4609C83.8945 12.1745 84.7826 11.931 85.6992 11.7305C86.6445 11.5299 87.5612 11.3867 88.4492 11.3008C89.3659 11.2148 90.1966 11.1719 90.9414 11.1719C92.3164 11.1719 93.6771 11.2721 95.0234 11.4727C96.3984 11.6732 97.7591 11.974 99.1055 12.375C98.9622 10.4844 98.8333 8.6224 98.7188 6.78906C98.6328 4.92708 98.4896 3.0651 98.2891 1.20312C99.8359 1.0599 101.368 0.902344 102.887 0.730469C104.405 0.558594 105.923 0.386719 107.441 0.214844C107.47 1.70443 107.484 3.19401 107.484 4.68359C107.513 6.14453 107.527 7.61979 107.527 9.10938ZM100.953 22.0859C100.953 21.4271 100.953 20.7682 100.953 20.1094C100.953 19.4505 100.939 18.7917 100.91 18.1328C99.1055 18.0469 97.3008 18.0039 95.4961 18.0039C95.2383 18.0039 94.694 18.0182 93.8633 18.0469C93.0326 18.0469 92.1445 18.0755 91.1992 18.1328C90.2826 18.1615 89.4232 18.2331 88.6211 18.3477C87.819 18.4336 87.3034 18.5482 87.0742 18.6914C86.6445 19.0065 86.3724 19.4505 86.2578 20.0234C86.1719 20.5964 86.1289 21.1263 86.1289 21.6133C86.1289 21.8424 86.1432 22.1576 86.1719 22.5586C86.2005 22.931 86.2435 23.332 86.3008 23.7617C86.3867 24.1628 86.487 24.5495 86.6016 24.9219C86.7161 25.2656 86.8451 25.5234 86.9883 25.6953C87.0742 25.7812 87.2174 25.8529 87.418 25.9102C87.6471 25.9674 87.8906 26.0104 88.1484 26.0391C88.4062 26.0677 88.6497 26.082 88.8789 26.082C89.1367 26.082 89.3372 26.082 89.4805 26.082C91.1133 26.082 92.7318 26.0104 94.3359 25.8672C95.9401 25.724 97.5586 25.5378 99.1914 25.3086C99.4206 25.2513 99.6927 25.2227 100.008 25.2227C100.323 25.194 100.609 25.1367 100.867 25.0508V24.9648C100.867 24.9362 100.882 24.9076 100.91 24.8789C100.967 24.4206 100.982 23.9622 100.953 23.5039C100.953 23.0456 100.953 22.5729 100.953 22.0859ZM137.047 14.8672V15.8555L128.754 16.2422C128.84 15.8698 128.883 15.4401 128.883 14.9531C128.883 14.237 128.783 13.7786 128.582 13.5781C128.382 13.349 127.938 13.2344 127.25 13.2344C126.276 13.2344 125.202 13.4062 124.027 13.75C122.853 14.0938 121.822 14.4232 120.934 14.7383C120.79 15.9987 120.676 17.2591 120.59 18.5195C120.504 19.7799 120.461 21.0404 120.461 22.3008C120.461 23.7044 120.461 25.1081 120.461 26.5117C120.49 27.8867 120.518 29.276 120.547 30.6797L113.156 31.1523C113.013 29.319 112.87 27.5 112.727 25.6953C112.583 23.862 112.454 22.0286 112.34 20.1953C112.197 17.7604 112.01 15.3398 111.781 12.9336C111.552 10.4987 111.323 8.04948 111.094 5.58594C112.727 5.70052 114.345 5.8724 115.949 6.10156C117.582 6.30208 119.215 6.5599 120.848 6.875L120.633 10.4844C121.492 9.79688 122.309 9.20964 123.082 8.72266C123.884 8.20703 124.686 7.77734 125.488 7.43359C126.319 7.08984 127.193 6.84635 128.109 6.70312C129.026 6.53125 130.043 6.44531 131.16 6.44531C131.905 6.44531 132.678 6.53125 133.48 6.70312C134.283 6.84635 134.97 7.20443 135.543 7.77734C135.829 8.09245 136.073 8.5651 136.273 9.19531C136.474 9.82552 136.632 10.4987 136.746 11.2148C136.861 11.9023 136.932 12.5898 136.961 13.2773C137.018 13.9362 137.047 14.4661 137.047 14.8672ZM168.672 17.0586C164.919 17.2591 161.181 17.431 157.457 17.5742C153.733 17.6888 149.995 17.8177 146.242 17.9609C146.214 18.0755 146.199 18.1901 146.199 18.3047C146.199 18.4193 146.199 18.5339 146.199 18.6484C146.199 19.6224 146.414 20.3672 146.844 20.8828C147.302 21.3984 147.861 21.7708 148.52 22C149.178 22.2005 149.909 22.3151 150.711 22.3438C151.513 22.3724 152.258 22.3867 152.945 22.3867C154.865 22.3867 156.784 22.3294 158.703 22.2148C160.622 22.0716 162.556 21.9284 164.504 21.7852L164.848 28.6172C162.957 28.7031 161.066 28.7747 159.176 28.832C157.314 28.8893 155.438 28.918 153.547 28.918C153.146 28.918 152.401 28.918 151.312 28.918C150.253 28.8893 149.107 28.8464 147.875 28.7891C146.672 28.7031 145.54 28.6029 144.48 28.4883C143.421 28.3737 142.719 28.2161 142.375 28.0156C141.487 27.5 140.785 26.8411 140.27 26.0391C139.783 25.237 139.396 24.3633 139.109 23.418C138.852 22.4727 138.665 21.513 138.551 20.5391C138.465 19.5365 138.408 18.5768 138.379 17.6602C138.35 17.5169 138.336 17.3737 138.336 17.2305C138.365 17.0586 138.379 16.901 138.379 16.7578C138.379 15.2396 138.536 13.8359 138.852 12.5469C139.195 11.2292 139.811 9.95443 140.699 8.72266C141.301 7.86328 142.189 7.14714 143.363 6.57422C144.538 6.0013 145.812 5.55729 147.188 5.24219C148.562 4.89844 149.938 4.66927 151.312 4.55469C152.688 4.41146 153.876 4.33984 154.879 4.33984C155.767 4.33984 156.855 4.42578 158.145 4.59766C159.434 4.74089 160.708 4.9987 161.969 5.37109C163.258 5.74349 164.418 6.23047 165.449 6.83203C166.48 7.40495 167.182 8.12109 167.555 8.98047C167.612 9.15234 167.669 9.45312 167.727 9.88281C167.812 10.2839 167.898 10.7565 167.984 11.3008C168.07 11.8164 168.142 12.375 168.199 12.9766C168.285 13.5781 168.357 14.151 168.414 14.6953C168.471 15.2396 168.514 15.7266 168.543 16.1562C168.6 16.5859 168.643 16.8867 168.672 17.0586ZM162.828 13.9219C162.656 12.6615 162.327 11.6732 161.84 10.957C161.382 10.2122 160.794 9.66797 160.078 9.32422C159.391 8.95182 158.589 8.72266 157.672 8.63672C156.784 8.52214 155.824 8.46484 154.793 8.46484C154.449 8.46484 154.02 8.47917 153.504 8.50781C152.988 8.50781 152.473 8.55078 151.957 8.63672C151.441 8.69401 150.954 8.79427 150.496 8.9375C150.038 9.08073 149.68 9.28125 149.422 9.53906C149.221 9.71094 149.049 9.95443 148.906 10.2695C148.792 10.556 148.691 10.8711 148.605 11.2148C148.52 11.5586 148.448 11.9023 148.391 12.2461C148.362 12.5612 148.348 12.8333 148.348 13.0625C148.348 13.5208 148.391 13.9648 148.477 14.3945L162.828 13.9219ZM201.457 9.10938C201.457 10.3125 201.457 11.5013 201.457 12.6758C201.457 13.8503 201.428 15.0391 201.371 16.2422C201.314 18.8776 201.199 21.4987 201.027 24.1055C200.855 26.6836 200.669 29.276 200.469 31.8828C197.862 32.0547 195.284 32.1979 192.734 32.3125C190.185 32.4271 187.607 32.4844 185 32.4844C184.656 32.4844 184.112 32.4844 183.367 32.4844C182.622 32.4557 181.82 32.4271 180.961 32.3984C180.13 32.3698 179.342 32.3268 178.598 32.2695C177.853 32.1836 177.309 32.069 176.965 31.9258C174.759 31.1237 173.112 30.0495 172.023 28.7031C170.964 27.3281 170.434 25.4375 170.434 23.0312V22.3438C170.491 21.2839 170.577 20.3385 170.691 19.5078C170.806 18.6771 171.007 17.918 171.293 17.2305C171.608 16.543 172.023 15.9128 172.539 15.3398C173.083 14.7383 173.814 14.1367 174.73 13.5352C175.361 13.1055 176.105 12.7474 176.965 12.4609C177.824 12.1745 178.712 11.931 179.629 11.7305C180.574 11.5299 181.491 11.3867 182.379 11.3008C183.296 11.2148 184.126 11.1719 184.871 11.1719C186.246 11.1719 187.607 11.2721 188.953 11.4727C190.328 11.6732 191.689 11.974 193.035 12.375C192.892 10.4844 192.763 8.6224 192.648 6.78906C192.562 4.92708 192.419 3.0651 192.219 1.20312C193.766 1.0599 195.298 0.902344 196.816 0.730469C198.335 0.558594 199.853 0.386719 201.371 0.214844C201.4 1.70443 201.414 3.19401 201.414 4.68359C201.443 6.14453 201.457 7.61979 201.457 9.10938ZM194.883 22.0859C194.883 21.4271 194.883 20.7682 194.883 20.1094C194.883 19.4505 194.868 18.7917 194.84 18.1328C193.035 18.0469 191.23 18.0039 189.426 18.0039C189.168 18.0039 188.624 18.0182 187.793 18.0469C186.962 18.0469 186.074 18.0755 185.129 18.1328C184.212 18.1615 183.353 18.2331 182.551 18.3477C181.749 18.4336 181.233 18.5482 181.004 18.6914C180.574 19.0065 180.302 19.4505 180.188 20.0234C180.102 20.5964 180.059 21.1263 180.059 21.6133C180.059 21.8424 180.073 22.1576 180.102 22.5586C180.13 22.931 180.173 23.332 180.23 23.7617C180.316 24.1628 180.417 24.5495 180.531 24.9219C180.646 25.2656 180.775 25.5234 180.918 25.6953C181.004 25.7812 181.147 25.8529 181.348 25.9102C181.577 25.9674 181.82 26.0104 182.078 26.0391C182.336 26.0677 182.579 26.082 182.809 26.082C183.066 26.082 183.267 26.082 183.41 26.082C185.043 26.082 186.661 26.0104 188.266 25.8672C189.87 25.724 191.488 25.5378 193.121 25.3086C193.35 25.2513 193.622 25.2227 193.938 25.2227C194.253 25.194 194.539 25.1367 194.797 25.0508V24.9648C194.797 24.9362 194.811 24.9076 194.84 24.8789C194.897 24.4206 194.911 23.9622 194.883 23.5039C194.883 23.0456 194.883 22.5729 194.883 22.0859Z" fill="#D4A373"/>
</svg>
